# Blender v2.93.2 OBJ File: 'shapeMap.blend'
# www.blender.org
mtllib shapeMap.mtl
o Cylinder
v -20.545755 -30.318062 24.200485
v -29.275314 -30.318062 23.340694
v -37.669407 -30.318062 20.794382
v -45.405449 -18.351740 16.659389
v -52.186131 -18.351738 11.094621
v -57.750912 -18.351736 4.313926
v 4.313937 -30.318035 -57.750908
v 11.094623 -30.318039 -52.186142
v 16.659391 -24.618351 -45.405460
v -20.545755 -30.318069 47.801533
v -33.879646 -30.318069 46.488251
v -46.701138 -30.318069 42.598911
v -58.517490 -18.351746 36.282951
v -68.874603 -18.351744 27.783077
v -77.374466 -18.351740 17.425968
v 17.425980 -30.318027 -77.374481
v 27.783085 -30.318031 -68.874611
v 36.282948 -24.618347 -58.517506
v 42.598919 -24.618351 -46.701160
v 46.488262 -30.318043 -33.879673
v 47.801544 -36.319107 -20.545765
v 46.488262 -36.319111 -7.211864
v 42.598915 -36.319115 5.609624
v 36.282963 -30.318058 17.425955
v 27.783089 -30.318062 27.783072
v 17.425980 -23.414549 36.282948
v 5.609629 -23.414551 42.598911
v -7.211861 -23.414553 46.488270
v -11.816194 -23.414545 23.340704
v -3.422103 -23.414545 20.794384
v 4.313937 -23.414543 16.659388
v 11.094627 -30.318058 11.094611
v 16.659401 -30.318054 4.313915
v 20.794390 -36.319115 -3.422109
v 23.340710 -36.319111 -11.816199
v 24.200504 -36.319107 -20.545767
v 23.340710 -30.318043 -29.275328
v 20.794394 -24.618355 -37.669426
v 21.154829 39.883198 -38.322338
v 23.745277 39.883198 -29.782745
v 24.619974 39.883194 -20.901867
v 23.745277 39.883190 -12.020989
v 21.154829 39.883186 -3.481401
v 16.948162 39.883186 4.388712
v 11.286936 39.883183 11.286942
v 4.388711 39.883183 16.948174
v -3.481419 39.883179 21.154840
v -12.021008 39.883179 23.745302
v -7.336866 39.883171 47.294086
v 5.706863 39.883171 43.337307
v 17.728031 39.883175 36.911865
v 28.264664 39.883179 28.264662
v 36.911861 39.883179 17.728027
v 43.337292 39.883186 5.706884
v 47.294064 39.883190 -7.336844
v 48.630108 39.883194 -20.901865
v 47.294064 39.883198 -34.466892
v 43.337299 39.883202 -47.510620
v 36.911846 39.883205 -59.531784
v 28.264654 39.883209 -70.068420
v 17.728031 39.883213 -78.715607
v -78.715614 39.883179 17.728039
v -70.068428 39.883179 28.264671
v -59.531792 39.883175 36.911865
v -47.510612 39.883171 43.337307
v -34.466896 39.883171 47.294075
v -20.901878 39.883171 48.630119
v 16.948154 39.883202 -46.192463
v 11.286929 39.883205 -53.090679
v 4.388711 39.883205 -58.751900
v -58.751923 39.883186 4.388720
v -53.090694 39.883183 11.286947
v -46.192474 39.883183 16.948174
v -38.322342 39.883179 21.154840
v -29.782755 39.883179 23.745287
v -20.901878 39.883179 24.619984
v -20.545755 -30.318062 24.200485
v -29.275314 -30.318062 23.340694
v -37.669407 -30.318062 20.794382
v -45.405449 -18.351740 16.659389
v -52.186131 -18.351738 11.094621
v -57.750912 -18.351736 4.313926
v 4.313937 -30.318035 -57.750908
v 11.094623 -30.318039 -52.186142
v 16.659391 -24.618351 -45.405460
v -20.545755 -30.318069 47.801533
v -33.879646 -30.318069 46.488251
v -46.701138 -30.318069 42.598911
v -58.517490 -18.351746 36.282951
v -68.874603 -18.351744 27.783077
v -77.374466 -18.351740 17.425968
v 17.425980 -30.318027 -77.374481
v 27.783085 -30.318031 -68.874611
v 36.282948 -24.618347 -58.517506
v 42.598919 -24.618351 -46.701160
v 46.488262 -30.318043 -33.879673
v 47.801544 -36.319107 -20.545765
v 46.488262 -36.319111 -7.211864
v 42.598915 -36.319115 5.609624
v 36.282963 -30.318058 17.425955
v 27.783089 -30.318062 27.783072
v 17.425980 -23.414549 36.282948
v 5.609629 -23.414551 42.598911
v -7.211861 -23.414553 46.488270
v -11.816194 -23.414545 23.340704
v -3.422103 -23.414545 20.794384
v 4.313937 -23.414543 16.659388
v 11.094627 -30.318058 11.094611
v 16.659401 -30.318054 4.313915
v 20.794390 -36.319115 -3.422109
v 23.340710 -36.319111 -11.816199
v 24.200504 -36.319107 -20.545767
v 23.340710 -30.318043 -29.275328
v 20.794394 -24.618355 -37.669426
v 21.154829 39.883198 -38.322338
v 23.745277 39.883198 -29.782745
v 24.619974 39.883194 -20.901867
v 23.745277 39.883190 -12.020989
v 21.154829 39.883186 -3.481401
v 16.948162 39.883186 4.388712
v 11.286936 39.883183 11.286942
v 4.388711 39.883183 16.948174
v -3.481419 39.883179 21.154840
v -12.021008 39.883179 23.745302
v -7.336866 39.883171 47.294086
v 5.706863 39.883171 43.337307
v 17.728031 39.883175 36.911865
v 28.264664 39.883179 28.264662
v 36.911861 39.883179 17.728027
v 43.337292 39.883186 5.706884
v 47.294064 39.883190 -7.336844
v 48.630108 39.883194 -20.901865
v 47.294064 39.883198 -34.466892
v 43.337299 39.883202 -47.510620
v 36.911846 39.883205 -59.531784
v 28.264654 39.883209 -70.068420
v 17.728031 39.883213 -78.715607
v -78.715614 39.883179 17.728039
v -70.068428 39.883179 28.264671
v -59.531792 39.883175 36.911865
v -47.510612 39.883171 43.337307
v -34.466896 39.883171 47.294075
v -20.901878 39.883171 48.630119
v 16.948154 39.883202 -46.192463
v 11.286929 39.883205 -53.090679
v 4.388711 39.883205 -58.751900
v -58.751923 39.883186 4.388720
v -53.090694 39.883183 11.286947
v -46.192474 39.883183 16.948174
v -38.322342 39.883179 21.154840
v -29.782755 39.883179 23.745287
v -20.901878 39.883179 24.619984
vt 0.000000 0.000000
vt 0.000000 0.000000
vt 0.000000 0.000000
vt 0.000000 0.000000
vt 0.000000 0.000000
vt 0.000000 0.000000
vt 0.000000 0.000000
vt 0.000000 0.000000
vt 0.000000 0.000000
vt 0.000000 0.000000
vt 0.000000 0.000000
vt 0.000000 0.000000
vt 0.000000 0.000000
vt 0.000000 0.000000
vt 0.000000 0.000000
vt 0.000000 0.000000
vt 0.000000 0.000000
vt 0.000000 0.000000
vt 0.000000 0.000000
vt 0.000000 0.000000
vt 0.000000 0.000000
vt 0.000000 0.000000
vt 0.000000 0.000000
vt 0.000000 0.000000
vt 0.000000 0.000000
vt 0.000000 0.000000
vt 0.000000 0.000000
vt 0.000000 0.000000
vt 0.000000 0.000000
vt 0.000000 0.000000
vt 0.000000 0.000000
vt 0.000000 0.000000
vt 0.000000 0.000000
vt 0.000000 0.000000
vt 0.000000 0.000000
vt 0.000000 0.000000
vt 0.000000 0.000000
vt 0.000000 0.000000
vt 0.000000 0.000000
vt 0.000000 0.000000
vt 0.000000 0.000000
vt 0.000000 0.000000
vt 0.000000 0.000000
vt 0.000000 0.000000
vt 0.000000 0.000000
vt 0.000000 0.000000
vt 0.000000 0.000000
vt 0.000000 0.000000
vt 0.000000 0.000000
vt 0.000000 0.000000
vt 0.000000 0.000000
vt 0.000000 0.000000
vt 0.000000 0.000000
vt 0.000000 0.000000
vt 0.000000 0.000000
vt 0.000000 0.000000
vt 0.000000 0.000000
vt 0.000000 0.000000
vt 0.000000 0.000000
vt 0.000000 0.000000
vt 0.000000 0.000000
vt 0.000000 0.000000
vt 0.000000 0.000000
vt 0.000000 0.000000
vt 0.000000 0.000000
vt 0.000000 0.000000
vt 0.000000 0.000000
vt 0.000000 0.000000
vt 0.000000 0.000000
vt 0.000000 0.000000
vt 0.000000 0.000000
vt 0.000000 0.000000
vt 0.000000 0.000000
vt 0.000000 0.000000
vt 0.000000 0.000000
vt 0.000000 0.000000
vt 0.000000 0.000000
vt 0.000000 0.000000
vt 0.000000 0.000000
vt 0.000000 0.000000
vt 0.000000 0.000000
vt 0.000000 0.000000
vt 0.000000 0.000000
vt 0.000000 0.000000
vt 0.000000 0.000000
vt 0.000000 0.000000
vt 0.000000 0.000000
vt 0.000000 0.000000
vt 0.000000 0.000000
vt 0.000000 0.000000
vt 0.000000 0.000000
vt 0.000000 0.000000
vt 0.000000 0.000000
vt 0.000000 0.000000
vt 0.000000 0.000000
vt 0.000000 0.000000
vt 0.000000 0.000000
vt 0.000000 0.000000
vt 0.000000 0.000000
vt 0.000000 0.000000
vt 0.000000 0.000000
vt 0.000000 0.000000
vt 0.000000 0.000000
vt 0.000000 0.000000
vt 0.000000 0.000000
vt 0.000000 0.000000
vt 0.000000 0.000000
vt 0.000000 0.000000
vt 0.000000 0.000000
vt 0.000000 0.000000
vt 0.000000 0.000000
vt 0.000000 0.000000
vt 0.000000 0.000000
vt 0.000000 0.000000
vt 0.000000 0.000000
vt 0.000000 0.000000
vt 0.000000 0.000000
vt 0.000000 0.000000
vt 0.000000 0.000000
vt 0.000000 0.000000
vt 0.000000 0.000000
vt 0.000000 0.000000
vt 0.000000 0.000000
vt 0.000000 0.000000
vt 0.000000 0.000000
vt 0.000000 0.000000
vt 0.000000 0.000000
vt 0.000000 0.000000
vt 0.000000 0.000000
vt 0.000000 0.000000
vt 0.000000 0.000000
vt 0.000000 0.000000
vt 0.000000 0.000000
vt 0.000000 0.000000
vt 0.000000 0.000000
vt 0.000000 0.000000
vt 0.000000 0.000000
vt 0.000000 0.000000
vt 0.000000 0.000000
vt 0.000000 0.000000
vt 0.000000 0.000000
vt 0.000000 0.000000
vt 0.000000 0.000000
vt 0.000000 0.000000
vt 0.000000 0.000000
vt 0.000000 0.000000
vt 0.000000 0.000000
vt 0.000000 0.000000
vt 0.000000 0.000000
vt 0.000000 0.000000
vt 0.000000 0.000000
vt 0.000000 0.000000
vn 0.0000 -1.0000 -0.0000
vn 0.0000 1.0000 0.0000
vn 0.6470 0.6796 0.3458
vn -0.5261 0.8488 0.0518
vn 0.4086 0.8488 -0.3354
vn 0.2244 0.8794 -0.4199
vn 0.0467 0.8794 0.4738
vn 0.1327 0.8893 0.4376
vn -0.2901 0.8893 -0.3535
vn -0.7729 -0.0141 0.6343
vn 0.7728 0.0211 -0.6343
vn 0.6343 0.0194 -0.7729
vn 0.4776 0.0161 -0.8784
vn 0.2903 0.0134 -0.9569
vn 0.0980 0.0122 -0.9951
vn -0.1010 0.0118 -0.9948
vn -0.2903 0.0116 -0.9569
vn -0.4714 0.0110 -0.8819
vn -0.6324 0.0102 -0.7746
vn 0.6332 -0.0041 0.7740
vn 0.7730 -0.0039 0.6344
vn -0.7730 0.0097 -0.6344
vn -0.6343 -0.0124 0.7730
vn -0.4772 -0.0098 0.8787
vn -0.2903 -0.0076 0.9569
vn -0.0980 -0.0064 0.9952
vn 0.1002 -0.0057 0.9949
vn 0.2903 -0.0052 0.9569
vn 0.4714 -0.0046 0.8819
vn 0.8813 -0.0040 0.4726
vn 0.9569 -0.0043 0.2903
vn 0.9952 -0.0050 0.0980
vn 0.9950 -0.0062 -0.1001
vn 0.9562 -0.0080 -0.2927
vn 0.8819 -0.0097 -0.4714
vn 0.7751 -0.0107 -0.6317
vn 0.6343 -0.0117 -0.7730
vn 0.8314 0.0070 0.5556
vn -0.6343 0.0175 0.7729
vn -0.7751 0.0167 0.6316
vn -0.8818 0.0160 0.4713
vn -0.9560 0.0140 0.2931
vn -0.9949 0.0118 0.1006
vn -0.9951 0.0104 -0.0980
vn -0.9569 0.0096 -0.2903
vn -0.8809 0.0095 -0.4732
vn 0.5556 0.0085 0.8314
usemtl Material.001
s off
f 62/1/1 71/2/1 72/3/1 63/4/1
f 74/5/1 65/6/1 64/7/1 73/8/1
f 73/8/1 64/7/1 63/4/1 72/3/1
f 75/9/1 66/10/1 65/6/1 74/5/1
f 76/11/1 67/12/1 66/10/1 75/9/1
f 48/13/1 49/14/1 67/12/1 76/11/1
f 50/15/1 49/14/1 48/13/1 47/16/1
f 51/17/1 50/15/1 47/16/1 46/18/1
f 52/19/1 51/17/1 46/18/1 45/20/1
f 53/21/1 52/19/1 45/20/1 44/22/1
f 54/23/1 53/21/1 44/22/1 43/24/1
f 55/25/1 54/23/1 43/24/1 42/26/1
f 56/27/1 55/25/1 42/26/1 41/28/1
f 57/29/1 56/27/1 41/28/1 40/30/1
f 39/31/1 58/32/1 57/29/1 40/30/1
f 68/33/1 59/34/1 58/32/1 39/31/1
f 69/35/1 60/36/1 59/34/1 68/33/1
f 70/37/1 61/38/1 60/36/1 69/35/1
f 15/39/2 14/40/2 5/41/2 6/42/2
f 3/43/3 4/44/3 13/45/3 12/46/3
f 4/44/2 5/41/2 14/40/2 13/45/2
f 2/47/2 3/43/2 12/46/2 11/48/2
f 1/49/2 2/47/2 11/48/2 10/50/2
f 29/51/4 1/49/4 10/50/4 28/52/4
f 27/53/2 30/54/2 29/51/2 28/52/2
f 26/55/2 31/56/2 30/54/2 27/53/2
f 25/57/5 32/58/5 31/56/5 26/55/5
f 24/59/2 33/60/2 32/58/2 25/57/2
f 23/61/6 34/62/6 33/60/6 24/59/6
f 22/63/2 35/64/2 34/62/2 23/61/2
f 21/65/2 36/66/2 35/64/2 22/63/2
f 20/67/7 37/68/7 36/66/7 21/65/7
f 38/69/8 37/68/8 20/67/8 19/70/8
f 9/71/2 38/69/2 19/70/2 18/72/2
f 8/73/9 9/71/9 18/72/9 17/74/9
f 7/75/2 8/73/2 17/74/2 16/76/2
f 6/42/10 5/41/10 72/3/10 71/2/10
f 15/39/11 62/1/11 63/4/11 14/40/11
f 63/4/12 64/7/12 13/45/12 14/40/12
f 64/7/13 65/6/13 12/46/13 13/45/13
f 65/6/14 66/10/14 11/48/14 12/46/14
f 66/10/15 67/12/15 10/50/15 11/48/15
f 67/12/16 49/14/16 28/52/16 10/50/16
f 49/14/17 50/15/17 27/53/17 28/52/17
f 50/15/18 51/17/18 26/55/18 27/53/18
f 51/17/19 52/19/19 25/57/19 26/55/19
f 45/20/20 46/18/20 31/56/20 32/58/20
f 44/22/21 45/20/21 32/58/21 33/60/21
f 52/19/22 53/21/22 24/59/22 25/57/22
f 4/44/23 73/8/23 72/3/23 5/41/23
f 3/43/24 74/5/24 73/8/24 4/44/24
f 2/47/25 75/9/25 74/5/25 3/43/25
f 1/49/26 76/11/26 75/9/26 2/47/26
f 29/51/27 48/13/27 76/11/27 1/49/27
f 30/54/28 47/16/28 48/13/28 29/51/28
f 31/56/29 46/18/29 47/16/29 30/54/29
f 43/24/30 44/22/30 33/60/30 34/62/30
f 42/26/31 43/24/31 34/62/31 35/64/31
f 41/28/32 42/26/32 35/64/32 36/66/32
f 40/30/33 41/28/33 36/66/33 37/68/33
f 39/31/34 40/30/34 37/68/34 38/69/34
f 68/33/35 39/31/35 38/69/35 9/71/35
f 69/35/36 68/33/36 9/71/36 8/73/36
f 70/37/37 69/35/37 8/73/37 7/75/37
f 61/38/38 70/37/38 7/75/38 16/76/38
f 60/36/39 61/38/39 16/76/39 17/74/39
f 59/34/40 60/36/40 17/74/40 18/72/40
f 58/32/41 59/34/41 18/72/41 19/70/41
f 57/29/42 58/32/42 19/70/42 20/67/42
f 56/27/43 57/29/43 20/67/43 21/65/43
f 55/25/44 56/27/44 21/65/44 22/63/44
f 54/23/45 55/25/45 22/63/45 23/61/45
f 53/21/46 54/23/46 23/61/46 24/59/46
f 6/42/47 71/2/47 62/1/47 15/39/47
f 138/77/1 147/78/1 148/79/1 139/80/1
f 150/81/1 141/82/1 140/83/1 149/84/1
f 149/84/1 140/83/1 139/80/1 148/79/1
f 151/85/1 142/86/1 141/82/1 150/81/1
f 152/87/1 143/88/1 142/86/1 151/85/1
f 124/89/1 125/90/1 143/88/1 152/87/1
f 126/91/1 125/90/1 124/89/1 123/92/1
f 127/93/1 126/91/1 123/92/1 122/94/1
f 128/95/1 127/93/1 122/94/1 121/96/1
f 129/97/1 128/95/1 121/96/1 120/98/1
f 130/99/1 129/97/1 120/98/1 119/100/1
f 131/101/1 130/99/1 119/100/1 118/102/1
f 132/103/1 131/101/1 118/102/1 117/104/1
f 133/105/1 132/103/1 117/104/1 116/106/1
f 115/107/1 134/108/1 133/105/1 116/106/1
f 144/109/1 135/110/1 134/108/1 115/107/1
f 145/111/1 136/112/1 135/110/1 144/109/1
f 146/113/1 137/114/1 136/112/1 145/111/1
f 91/115/2 90/116/2 81/117/2 82/118/2
f 79/119/3 80/120/3 89/121/3 88/122/3
f 80/120/2 81/117/2 90/116/2 89/121/2
f 78/123/2 79/119/2 88/122/2 87/124/2
f 77/125/2 78/123/2 87/124/2 86/126/2
f 105/127/4 77/125/4 86/126/4 104/128/4
f 103/129/2 106/130/2 105/127/2 104/128/2
f 102/131/2 107/132/2 106/130/2 103/129/2
f 101/133/5 108/134/5 107/132/5 102/131/5
f 100/135/2 109/136/2 108/134/2 101/133/2
f 99/137/6 110/138/6 109/136/6 100/135/6
f 98/139/2 111/140/2 110/138/2 99/137/2
f 97/141/2 112/142/2 111/140/2 98/139/2
f 96/143/7 113/144/7 112/142/7 97/141/7
f 114/145/8 113/144/8 96/143/8 95/146/8
f 85/147/2 114/145/2 95/146/2 94/148/2
f 84/149/9 85/147/9 94/148/9 93/150/9
f 83/151/2 84/149/2 93/150/2 92/152/2
f 82/118/10 81/117/10 148/79/10 147/78/10
f 91/115/11 138/77/11 139/80/11 90/116/11
f 139/80/12 140/83/12 89/121/12 90/116/12
f 140/83/13 141/82/13 88/122/13 89/121/13
f 141/82/14 142/86/14 87/124/14 88/122/14
f 142/86/15 143/88/15 86/126/15 87/124/15
f 143/88/16 125/90/16 104/128/16 86/126/16
f 125/90/17 126/91/17 103/129/17 104/128/17
f 126/91/18 127/93/18 102/131/18 103/129/18
f 127/93/19 128/95/19 101/133/19 102/131/19
f 121/96/20 122/94/20 107/132/20 108/134/20
f 120/98/21 121/96/21 108/134/21 109/136/21
f 128/95/22 129/97/22 100/135/22 101/133/22
f 80/120/23 149/84/23 148/79/23 81/117/23
f 79/119/24 150/81/24 149/84/24 80/120/24
f 78/123/25 151/85/25 150/81/25 79/119/25
f 77/125/26 152/87/26 151/85/26 78/123/26
f 105/127/27 124/89/27 152/87/27 77/125/27
f 106/130/28 123/92/28 124/89/28 105/127/28
f 107/132/29 122/94/29 123/92/29 106/130/29
f 119/100/30 120/98/30 109/136/30 110/138/30
f 118/102/31 119/100/31 110/138/31 111/140/31
f 117/104/32 118/102/32 111/140/32 112/142/32
f 116/106/33 117/104/33 112/142/33 113/144/33
f 115/107/34 116/106/34 113/144/34 114/145/34
f 144/109/35 115/107/35 114/145/35 85/147/35
f 145/111/36 144/109/36 85/147/36 84/149/36
f 146/113/37 145/111/37 84/149/37 83/151/37
f 137/114/38 146/113/38 83/151/38 92/152/38
f 136/112/39 137/114/39 92/152/39 93/150/39
f 135/110/40 136/112/40 93/150/40 94/148/40
f 134/108/41 135/110/41 94/148/41 95/146/41
f 133/105/42 134/108/42 95/146/42 96/143/42
f 132/103/43 133/105/43 96/143/43 97/141/43
f 131/101/44 132/103/44 97/141/44 98/139/44
f 130/99/45 131/101/45 98/139/45 99/137/45
f 129/97/46 130/99/46 99/137/46 100/135/46
f 82/118/47 147/78/47 138/77/47 91/115/47
